<svg xmlns="http://www.w3.org/2000/svg" xmlns:xlink="http://www.w3.org/1999/xlink" width="375" height="507" viewBox="0 0 375 507">
  <defs>
    <clipPath id="clip-path">
      <path id="Combined_Shape" data-name="Combined Shape" d="M187.307,507c-1.842,0-3.684-.016-5.516-.059-.347,0-.695,0-1.042-.017a381.844,381.844,0,0,1-61.485-6.1c-.986-.185-1.973-.37-2.959-.563a368.18,368.18,0,0,1-53.386-14.375c-1.061-.362-2.1-.74-3.157-1.127q-5.862-2.106-11.6-4.422c-.48-.193-.958-.387-1.428-.581A355.126,355.126,0,0,1,0,456.658V0H375V457.249a354.528,354.528,0,0,1-40.09,20.16c-.47.2-.949.4-1.428.606q-5.736,2.421-11.6,4.657c-1.052.4-2.1.79-3.156,1.177a369.66,369.66,0,0,1-65.7,17.629c-1,.176-1.992.336-2.988.5A382.453,382.453,0,0,1,188.256,507Z" transform="translate(-0.002)" fill="#3756df" opacity="0.079"/>
    </clipPath>
    <linearGradient id="linear-gradient" x1="0.5" y1="1" x2="0.5" gradientUnits="objectBoundingBox">
      <stop offset="0" stop-color="gray" stop-opacity="0.251"/>
      <stop offset="0.535" stop-color="gray" stop-opacity="0.122"/>
      <stop offset="1" stop-color="gray" stop-opacity="0.102"/>
    </linearGradient>
  </defs>
  <g id="Group" transform="translate(0)">
    <path id="Combined_Shape-2" data-name="Combined Shape" d="M187.307,507c-1.842,0-3.684-.016-5.516-.059-.347,0-.695,0-1.042-.017a381.844,381.844,0,0,1-61.485-6.1c-.986-.185-1.973-.37-2.959-.563a368.18,368.18,0,0,1-53.386-14.375c-1.061-.362-2.1-.74-3.157-1.127q-5.862-2.106-11.6-4.422c-.48-.193-.958-.387-1.428-.581A355.126,355.126,0,0,1,0,456.658V0H375V457.249a354.528,354.528,0,0,1-40.09,20.16c-.47.2-.949.4-1.428.606q-5.736,2.421-11.6,4.657c-1.052.4-2.1.79-3.156,1.177a369.66,369.66,0,0,1-65.7,17.629c-1,.176-1.992.336-2.988.5A382.453,382.453,0,0,1,188.256,507Z" transform="translate(-0.002)" fill="#3756df" opacity="0.079"/>
    <g id="Group-2" data-name="Group" clip-path="url(#clip-path)">
      <g id="undraw_Astronaut_xko2" transform="translate(28 247)">
        <path id="Path" d="M6.928,3.567H6.164c-.156,0-.54-.61-.54-.786V2.072C5.624,1.519,5,0,4.444,0s-1.18,1.519-1.18,2.072v.709c0,.25-.193.786-.428.786H2.072C1.519,3.567,0,4,0,4.551s1.519.983,2.072.983h.911c.288,0,.281.3.281.448v.946C3.264,7.481,3.89,9,4.444,9s1.18-1.519,1.18-2.072V5.981c0-.125.253-.448.393-.448h.911C7.481,5.534,9,5.1,9,4.551S7.481,3.567,6.928,3.567Z" transform="translate(129.964 2)" fill="#2196f3"/>
        <path id="Path-2" data-name="Path" d="M10.007,5.153H8.9c-.225,0-.78-.882-.78-1.135V2.993c0-.8-.9-2.993-1.7-2.993s-1.7,2.194-1.7,2.993V4.018c0,.361-.278,1.135-.619,1.135h-1.1c-.8,0-2.993.621-2.993,1.42s2.194,1.42,2.993,1.42H4.309c.417,0,.406.428.406.647v1.367c0,.8.9,2.993,1.7,2.993s1.7-2.194,1.7-2.993V8.64c0-.181.366-.647.568-.647h1.315c.8,0,2.993-.621,2.993-1.42S10.806,5.153,10.007,5.153Z" transform="translate(7.964 46)" fill="url(#linear-gradient)"/>
        <path id="Path-3" data-name="Path" d="M10.007,5.153H8.9c-.225,0-.78-.882-.78-1.135V2.993c0-.8-.9-2.993-1.7-2.993s-1.7,2.194-1.7,2.993V4.018c0,.361-.278,1.135-.619,1.135h-1.1c-.8,0-2.993.621-2.993,1.42s2.194,1.42,2.993,1.42H4.309c.417,0,.406.428.406.647v1.367c0,.8.9,2.993,1.7,2.993s1.7-2.194,1.7-2.993V8.64c0-.181.366-.647.568-.647h1.315c.8,0,2.993-.621,2.993-1.42S10.806,5.153,10.007,5.153Z" transform="translate(126.964 1)" fill="url(#linear-gradient)"/>
        <path id="Path-4" data-name="Path" d="M10.007,5.153H8.9c-.225,0-.78-.882-.78-1.135V2.993c0-.8-.9-2.993-1.7-2.993s-1.7,2.194-1.7,2.993V4.018c0,.361-.278,1.135-.619,1.135h-1.1c-.8,0-2.993.621-2.993,1.42s2.194,1.42,2.993,1.42H4.309c.417,0,.406.428.406.647v1.367c0,.8.9,2.993,1.7,2.993s1.7-2.194,1.7-2.993V8.64c0-.181.366-.647.568-.647h1.315c.8,0,2.993-.621,2.993-1.42S10.806,5.153,10.007,5.153Z" transform="translate(248.964 22)" fill="url(#linear-gradient)"/>
        <path id="Path-5" data-name="Path" d="M4.618,2.374H4.109c-.1,0-.407-.4-.407-.52V1.382C3.7,1.013,3.249,0,2.88,0s-.823,1.013-.823,1.382v.473c0,.166-.009.52-.166.52H1.382C1.012,2.374,0,2.622,0,2.991s1.012.617,1.382.617h.607c.192,0,.068.279.068.379v.631C2.057,4.988,2.511,6,2.88,6S3.7,4.988,3.7,4.618V3.988c0-.084.215-.379.309-.379h.607C4.987,3.608,6,3.36,6,2.991S4.987,2.374,4.618,2.374Z" transform="translate(204.964 18)" fill="#1976d2"/>
        <path id="Path-6" data-name="Path" d="M7.7,3.957H6.849c-.173,0-.678-.671-.678-.866V2.3C6.171,1.688,5.415,0,4.8,0S3.428,1.688,3.428,2.3v.788c0,.277-.016.866-.277.866H2.3c-.615,0-2.3.413-2.3,1.029S1.687,6.014,2.3,6.014H3.314c.32,0,.114.464.114.632V7.7c0,.615.756,2.3,1.371,2.3S6.171,8.313,6.171,7.7V6.646c0-.139.359-.632.514-.632H7.7c.615,0,2.3-.413,2.3-1.029S8.312,3.957,7.7,3.957Z" transform="translate(49.964 40)" fill="url(#linear-gradient)"/>
        <path id="Path-7" data-name="Path" d="M7.7,3.957H6.849c-.173,0-.678-.671-.678-.866V2.3C6.171,1.688,5.415,0,4.8,0S3.428,1.688,3.428,2.3v.788c0,.277-.016.866-.277.866H2.3c-.615,0-2.3.413-2.3,1.029S1.687,6.014,2.3,6.014H3.314c.32,0,.114.464.114.632V7.7c0,.615.756,2.3,1.371,2.3S6.171,8.313,6.171,7.7V6.646c0-.139.359-.632.514-.632H7.7c.615,0,2.3-.413,2.3-1.029S8.312,3.957,7.7,3.957Z" transform="translate(202.964 16)" fill="url(#linear-gradient)"/>
        <path id="Path-8" data-name="Path" d="M4.618,2.374H4.109c-.1,0-.407-.4-.407-.52V1.382C3.7,1.013,3.249,0,2.88,0s-.823,1.013-.823,1.382v.473c0,.166-.009.52-.166.52H1.382C1.012,2.374,0,2.622,0,2.991s1.012.617,1.382.617h.607c.192,0,.068.279.068.379v.631C2.057,4.988,2.511,6,2.88,6S3.7,4.988,3.7,4.618V3.988c0-.084.215-.379.309-.379h.607C4.987,3.608,6,3.36,6,2.991S4.987,2.374,4.618,2.374Z" transform="translate(52.964 41)" fill="#1976d2"/>
        <circle id="Oval" cx="3.5" cy="3.5" r="3.5" transform="translate(178.964 6)" fill="#64b5f6"/>
        <circle id="Oval-2" data-name="Oval" cx="1.5" cy="1.5" r="1.5" transform="translate(173.964 39)" fill="#0071bc"/>
        <circle id="Oval-3" data-name="Oval" cx="3" cy="3" r="3" transform="translate(48.964 12)" fill="#64b5f6"/>
        <circle id="Oval-4" data-name="Oval" cx="1.5" cy="1.5" r="1.5" transform="translate(22.964 25)" fill="#64b5f6"/>
        <circle id="Oval-5" data-name="Oval" cx="1.5" cy="1.5" r="1.5" transform="translate(148.964 56)" fill="#82a9ff"/>
        <circle id="Oval-6" data-name="Oval" cx="2.5" cy="2.5" r="2.5" transform="translate(33.964 82)" fill="#82a9ff"/>
        <circle id="Oval-7" data-name="Oval" cx="2.5" cy="2.5" r="2.5" transform="translate(90.964 7)" fill="url(#linear-gradient)"/>
        <circle id="Oval-8" data-name="Oval" cx="2.5" cy="2.5" r="2.5" transform="translate(90.964 40)" fill="url(#linear-gradient)"/>
        <circle id="Oval-9" data-name="Oval" cx="2.5" cy="2.5" r="2.5" transform="translate(230.964)" fill="url(#linear-gradient)"/>
        <circle id="Oval-10" data-name="Oval" cx="2.5" cy="2.5" r="2.5" transform="translate(290.964 46)" fill="url(#linear-gradient)"/>
        <circle id="Oval-11" data-name="Oval" cx="1.5" cy="1.5" r="1.5" transform="translate(91.964 8)" fill="#0d47a1"/>
        <circle id="Oval-12" data-name="Oval" cx="3.5" cy="3.5" r="3.5" transform="translate(130.964 30)" fill="#64b5f6"/>
        <path id="Path-9" data-name="Path" d="M145.994,32.592a31.455,31.455,0,0,1-2.845,11.131c-.219.526-.441,1.048-.664,1.566l-.695,1.579a33,33,0,0,1-4.37,7.868c-.109.132-.219.263-.332.39a13.676,13.676,0,0,1-1.468,1.425,10.026,10.026,0,0,1-5.834,2.487c-4.169.219-7.783-2.7-10.938-5.447q-5.644-4.908-11.288-9.829c-1.294-1.123-4.431-3.855-4.707-4.1v53.62h-.966l.577,9.083,1.206,19.008A159.08,159.08,0,0,1,74.935,124l-.8-21.6-.227-6.153-.109-2.96h-.9l-.079,1.61-.354,7.5-1.027,21.56a159.014,159.014,0,0,1-28.6-3.184L43.986,102.4l.568-9.109H43.99V38.8a47.447,47.447,0,0,1-5.559,6.158,120.926,120.926,0,0,1-12.9,10.127c-2.692,1.917-5.755,3.895-8.889,4.653a11.448,11.448,0,0,1-1.468.259,8.885,8.885,0,0,1-4.086-.443,8.128,8.128,0,0,1-1.311-.605c-.232-.127-.45-.263-.664-.408C5.835,56.3,4.113,52,2.763,48.091c-1.634-4.737-3.3-9.7-2.6-14.662A22.594,22.594,0,0,1,3.4,25.048c1.062-1.776,2.268-3.487,3.461-5.162A4.475,4.475,0,0,1,9.038,17.97h0l.066-.013a1.73,1.73,0,0,1,.337-.048,2.675,2.675,0,0,1,.328.009,4.344,4.344,0,0,1,2.347,1.522l3.05,3.153,1.468,1.513c.079.083.157.167.24.25.647.667,1.289,1.333,1.936,2,1.263-2.189,2.535-4.39,3.876-6.544A56.606,56.606,0,0,1,32.222,7.764a31.648,31.648,0,0,1,6.21-4.473A26.038,26.038,0,0,1,44.607.839c2.482-.623,4.331-.908,5.6-.461A3.106,3.106,0,0,1,52.141,3a.13.13,0,0,1,.009.044,12.311,12.311,0,0,1,.2,2.346c0,.487,0,.974,0,1.465H93.871c-.039-1.263-.074-2.649-.009-3.811.013-.281.035-.548.061-.8A3.318,3.318,0,0,1,94.4.611,2.062,2.062,0,0,1,96.008.005c1.914-.026,4.68,1.25,6.035,1.759a39.67,39.67,0,0,1,5.515,2.579A40.544,40.544,0,0,1,126.1,26.368a8.586,8.586,0,0,1,1.617-3.162,9.775,9.775,0,0,1,1.735-1.693,10.626,10.626,0,0,1,3.47-1.754,9.768,9.768,0,0,1,2.7-.417,8.636,8.636,0,0,1,1.468.1,8.274,8.274,0,0,1,2.277.671,9.869,9.869,0,0,1,3.12,2.3c.236.254.454.518.664.789a14.124,14.124,0,0,1,2.587,6.074A15.755,15.755,0,0,1,145.994,32.592Z" transform="translate(84.964 138)" fill="#fff"/>
        <path id="Path-10" data-name="Path" d="M56.444,20.983h0C53.172,9.381,42.99,0,30.93,0S8.688,9.381,5.416,20.983h0A5.423,5.423,0,0,0,0,26.413v6.6H4.633C6.629,45.636,17.641,54,30.93,54s24.3-8.364,26.3-20.983H62V26.554a5.563,5.563,0,0,0-5.556-5.571Z" transform="translate(126.964 87)" fill="#fff"/>
        <circle id="Oval-13" data-name="Oval" cx="21.5" cy="21.5" r="21.5" transform="translate(135.964 95)" fill="#3756df"/>
        <path id="Path-11" data-name="Path" d="M9,4.88a5.124,5.124,0,0,1-.859,2.864,4.6,4.6,0,0,1-.984,1.071.225.225,0,0,1-.036.031V180.578Q4.659,181.837,2.141,183V9.033A5.094,5.094,0,0,1,.3,3.124,4.453,4.453,0,0,1,5.324.083,4.791,4.791,0,0,1,9,4.88Z" transform="translate(219.964 66)" fill="#f6f8fb"/>
        <path id="Path-12" data-name="Path" d="M91,40.943a107.93,107.93,0,0,1-2.094,22.706C59.271,19.709,29.635,117.783,0,66.993V15.007c29.641,50.8,59.283-47.323,88.924-3.318A230.012,230.012,0,0,1,91,40.943Z" transform="translate(227.964 62)" fill="#3756df"/>
        <path id="Path-13" data-name="Path" d="M9,4.851A4.96,4.96,0,0,1,7.48,8.475a4.179,4.179,0,0,1-.625.5V183q-2.516-1.089-4.979-2.286V8.793a.224.224,0,0,1-.036-.03A4.587,4.587,0,0,1,.856,7.7,5.16,5.16,0,0,1,.862,2,4.322,4.322,0,0,1,5.892.238,4.831,4.831,0,0,1,9,4.851Z" transform="translate(92.964 66)" fill="#f6f8fb"/>
        <path id="Path-14" data-name="Path" d="M94,15.007V66.993C63.367,16.17,32.735,114.406,2.1,70.25A227.316,227.316,0,0,1,0,40.943a108.923,108.923,0,0,1,2.085-22.7C32.723,62.458,63.362-35.826,94,15.007Z" transform="translate(0.964 62)" fill="#3756df"/>
        <path id="Path-15" data-name="Path" d="M25.163,4.828A22.482,22.482,0,0,1,43,13.52,22.325,22.325,0,0,0,23.4.025,22.441,22.441,0,0,0,2.588,11.641,21.444,21.444,0,0,0,4.505,35,21.433,21.433,0,0,1,6.6,14.523,22.488,22.488,0,0,1,25.163,4.828Z" transform="translate(135.964 94)" opacity="0.2"/>
        <path id="Path-16" data-name="Path" d="M6.928,3.567H6.164c-.156,0-.54-.61-.54-.786V2.072C5.624,1.519,5,0,4.444,0s-1.18,1.519-1.18,2.072v.709c0,.25-.193.786-.428.786H2.072C1.519,3.567,0,4,0,4.551s1.519.983,2.072.983h.911c.288,0,.281.3.281.448v.946C3.264,7.481,3.89,9,4.444,9s1.18-1.519,1.18-2.072V5.981c0-.125.253-.448.393-.448h.911C7.481,5.534,9,5.1,9,4.551S7.481,3.567,6.928,3.567Z" transform="translate(72.964 52)" fill="#2196f3"/>
        <circle id="Oval-14" data-name="Oval" cx="1.5" cy="1.5" r="1.5" transform="translate(115.964 84)" fill="#0d47a1"/>
        <circle id="Oval-15" data-name="Oval" cx="3" cy="3" r="3" transform="translate(280.964 53)" fill="#64b5f6"/>
        <circle id="Oval-16" data-name="Oval" cx="1.5" cy="1.5" r="1.5" transform="translate(164.964 77)" fill="#0071bc"/>
        <circle id="Oval-17" data-name="Oval" cx="1.5" cy="1.5" r="1.5" transform="translate(92.964 41)" fill="#0d47a1"/>
        <path id="Path-17" data-name="Path" d="M6.928,3.567H6.164c-.156,0-.54-.61-.54-.786V2.072C5.624,1.519,5,0,4.444,0s-1.18,1.519-1.18,2.072v.709c0,.25-.193.786-.428.786H2.072C1.519,3.567,0,4,0,4.551s1.519.983,2.072.983h.911c.288,0,.281.3.281.448v.946C3.264,7.481,3.89,9,4.444,9s1.18-1.519,1.18-2.072V5.981c0-.125.253-.448.393-.448h.911C7.481,5.534,9,5.1,9,4.551S7.481,3.567,6.928,3.567Z" transform="translate(249.964 24)" fill="#2196f3"/>
        <circle id="Oval-18" data-name="Oval" cx="1.5" cy="1.5" r="1.5" transform="translate(291.964 47)" fill="#0d47a1"/>
        <circle id="Oval-19" data-name="Oval" cx="1.5" cy="1.5" r="1.5" transform="translate(231.964)" fill="#0d47a1"/>
        <circle id="Oval-20" data-name="Oval" cx="4" cy="4" r="4" transform="translate(272.964 41)" fill="url(#linear-gradient)"/>
        <circle id="Oval-21" data-name="Oval" cx="4" cy="4" r="4" transform="translate(214.964 49)" fill="url(#linear-gradient)"/>
        <circle id="Oval-22" data-name="Oval" cx="4" cy="4" r="4" transform="translate(177.964 6)" fill="url(#linear-gradient)"/>
        <circle id="Oval-23" data-name="Oval" cx="4" cy="4" r="4" transform="translate(129.964 29)" fill="url(#linear-gradient)"/>
        <circle id="Oval-24" data-name="Oval" cx="4" cy="4" r="4" transform="translate(46.964 12)" fill="url(#linear-gradient)"/>
        <circle id="Oval-25" data-name="Oval" cx="4" cy="4" r="4" transform="translate(31.964 81)" fill="url(#linear-gradient)"/>
        <circle id="Oval-26" data-name="Oval" cx="2" cy="2" r="2" transform="translate(263.964)" fill="url(#linear-gradient)"/>
        <circle id="Oval-27" data-name="Oval" cx="2" cy="2" r="2" transform="translate(146.964 56)" fill="url(#linear-gradient)"/>
        <circle id="Oval-28" data-name="Oval" cx="2" cy="2" r="2" transform="translate(22.964 24)" fill="url(#linear-gradient)"/>
        <circle id="Oval-29" data-name="Oval" cx="2" cy="2" r="2" transform="translate(50.964 81)" fill="url(#linear-gradient)"/>
        <circle id="Oval-30" data-name="Oval" cx="2" cy="2" r="2" transform="translate(99.964 74)" fill="url(#linear-gradient)"/>
        <circle id="Oval-31" data-name="Oval" cx="2" cy="2" r="2" transform="translate(172.964 38)" fill="url(#linear-gradient)"/>
        <circle id="Oval-32" data-name="Oval" cx="1.5" cy="1.5" r="1.5" transform="translate(263.964)" fill="#82a9ff"/>
        <circle id="Oval-33" data-name="Oval" cx="2.5" cy="2.5" r="2.5" transform="translate(274.964 42)" fill="#64b5f6"/>
        <ellipse id="Oval-34" data-name="Oval" cx="13" cy="2" rx="13" ry="2" transform="translate(143.964 124)" opacity="0.2"/>
        <rect id="Rectangle" width="2" height="27" transform="translate(141.964 70)" fill="#fff"/>
        <rect id="Rectangle-2" data-name="Rectangle" width="2" height="27" transform="translate(173.964 71)" fill="#fff"/>
        <circle id="Oval-35" data-name="Oval" cx="4" cy="4" r="4" transform="translate(139.964 65)" fill="#fff"/>
        <circle id="Oval-36" data-name="Oval" cx="4" cy="4" r="4" transform="translate(171.964 65)" fill="#fff"/>
      </g>
    </g>
  </g>
</svg>
