<svg xmlns="http://www.w3.org/2000/svg" width="11.398" height="17.196" viewBox="0 0 11.398 17.196">
  <path id="_" data-name="$" d="M6.157,17.2H5.271v-1.5A6.512,6.512,0,0,1,1.5,14.525,3.826,3.826,0,0,1,0,11.5H3.153a2.043,2.043,0,0,0,2.119,1.6V10.055L4.257,9.846C1.428,9.223.11,7.94.11,5.809A3.775,3.775,0,0,1,1.564,2.77,6.228,6.228,0,0,1,5.271,1.552V0h.886V1.562C9.2,1.729,11.079,3.314,11.179,5.8H8.046A1.924,1.924,0,0,0,6.157,4.157V7.131l1.024.22C10.137,8,11.4,9.184,11.4,11.309c0,2.515-2.008,4.192-5.241,4.376V17.2Zm0-6.943v2.835c1.237-.1,1.919-.6,1.919-1.392C8.076,10.96,7.609,10.609,6.157,10.254ZM5.271,4.137h0c-1.139.086-1.82.588-1.82,1.343,0,.691.544,1.126,1.82,1.452V4.137Z" transform="translate(0 0)" fill="#fff"/>
</svg>
