<svg id="Icons_Tab_2" data-name="Icons/Tab/2" xmlns="http://www.w3.org/2000/svg" width="34" height="34" viewBox="0 0 34 34">
  <path id="Combined_Shape" data-name="Combined Shape" d="M3.812,18.4a3.818,3.818,0,0,1-3.8-3.571L0,14.592V3.812A3.818,3.818,0,0,1,3.571.008L3.812,0H21.971a3.816,3.816,0,0,1,3.8,3.571l.008.241v10.78a3.816,3.816,0,0,1-3.571,3.8l-.241.008ZM2.518,14.592a1.3,1.3,0,0,0,1.144,1.286l.15.009H21.971a1.3,1.3,0,0,0,1.286-1.144l.009-.152V7.056H2.517ZM2.526,3.662l-.008.15v.725H23.265V3.812a1.3,1.3,0,0,0-1.144-1.286l-.152-.008H3.812A1.3,1.3,0,0,0,2.526,3.662Zm2.7,8.5a1.259,1.259,0,0,1,0-2.518h1.7a1.259,1.259,0,1,1,0,2.518Z" transform="translate(4.108 8.376)" fill="#3756df"/>
</svg>
