<svg id="Icons_Card_Visa" data-name="Icons/Card/Visa" xmlns="http://www.w3.org/2000/svg" width="24" height="24" viewBox="0 0 24 24">
  <g id="visa" transform="translate(3 5)">
    <path id="Shape" d="M11.326,14.477h-3.9a.663.663,0,0,1-.643-.5L3.94,3.017A18.108,18.108,0,0,0,.454,1.294.664.664,0,0,1,.664,0H6.038A2.65,2.65,0,0,1,8.619,2.029L9.752,6.688,12.126.428A.668.668,0,0,1,12.747,0h3.589a.664.664,0,0,1,.621.9L13.806,9.169a.668.668,0,0,1-.621.428.656.656,0,0,1-.236-.044.665.665,0,0,1-.384-.857l2.807-7.368H13.2L10.238,9.154c-.007.019-.014.038-.023.057a.686.686,0,0,1-.084.132.652.652,0,0,1-.3.211.62.62,0,0,1-.109.028.665.665,0,0,1-.476-.1.663.663,0,0,1-.269-.363l0-.011,0-.01A9.609,9.609,0,0,0,5.629,4.237l2.309,8.911h2.93l.476-1.248a.663.663,0,0,1,.857-.384.664.664,0,0,1,.384.857l-.639,1.677A.667.667,0,0,1,11.326,14.477ZM3.7,1.328c.425.236.837.486,1.226.742A15.466,15.466,0,0,1,7.859,4.524l-.53-2.182A1.326,1.326,0,0,0,6.038,1.328Z" transform="translate(0 0)" fill="#3756df"/>
  </g>
</svg>
