<svg id="Icons_Tab_2" data-name="Icons/Tab/2" xmlns="http://www.w3.org/2000/svg" width="34" height="34" viewBox="0 0 34 34">
  <path id="Combined_Shape" data-name="Combined Shape" d="M16.121,19.974l-.006-.229V3.63A3.63,3.63,0,0,1,23.368,3.4l.006.229V19.745a3.63,3.63,0,0,1-7.253.229ZM18.6,3.486l-.009.144V19.745a1.151,1.151,0,0,0,2.294.144l.009-.144V3.63A1.151,1.151,0,0,0,18.6,3.486ZM8.064,19.974l-.008-.229V9.784a3.63,3.63,0,0,1,7.253-.229l.008.229v9.96a3.63,3.63,0,0,1-7.253.229ZM10.546,9.64l-.009.144v9.96a1.151,1.151,0,0,0,2.292.144l.009-.144V9.784a1.151,1.151,0,0,0-2.292-.144ZM.008,19.974,0,19.745v-3.63a3.63,3.63,0,0,1,7.253-.229l.006.229v3.63a3.63,3.63,0,0,1-7.252.229Zm2.48-4-.009.144v3.63a1.151,1.151,0,0,0,2.294.144l.009-.144v-3.63a1.151,1.151,0,0,0-2.294-.144Zm.036-5.523v-.236l-.116-.026c-.269-.064-.538-.142-.8-.231l-.385-.142a1.239,1.239,0,1,1,.917-2.3,5.911,5.911,0,0,0,1.814.413.428.428,0,0,0,.427-.384c0-.18-.268-.384-.617-.384A3,3,0,0,1,.532,4.294a2.868,2.868,0,0,1,1.85-2.68l.142-.047V1.239A1.24,1.24,0,0,1,3.607.01L3.763,0A1.24,1.24,0,0,1,5,1.239v.4c.208.055.409.117.617.189l.317.117a1.24,1.24,0,0,1-.9,2.312A4.252,4.252,0,0,0,3.386,3.91a.381.381,0,0,0-.376.384c0,.194.284.384.755.384l.221.008A2.968,2.968,0,0,1,6.862,7.54a2.818,2.818,0,0,1-.877,2.041,2.927,2.927,0,0,1-.705.5L5,10.205v.242a1.24,1.24,0,0,1-1.085,1.23l-.156.01A1.24,1.24,0,0,1,2.523,10.447Z" transform="translate(5.313 5.313)" fill="#3756df"/>
</svg>
