<svg xmlns="http://www.w3.org/2000/svg" width="17.221" height="17.909" viewBox="0 0 17.221 17.909">
  <g id="iconfinder_XRP-alt_1175359" transform="translate(0 -0.074)">
    <path id="XRP" d="M15.262,10.989a3.964,3.964,0,0,0-1.924-.478l.006,0A1.556,1.556,0,1,1,13.268,7.4h0a3.961,3.961,0,0,0,1.948-.519,3.616,3.616,0,0,0,1.344-5.069A3.948,3.948,0,0,0,11.275.52,3.616,3.616,0,0,0,9.931,5.589,1.507,1.507,0,0,1,9.371,7.7,1.646,1.646,0,0,1,7.19,7.2h0v0A3.762,3.762,0,0,0,5.752,5.834,3.943,3.943,0,0,0,.5,7.235a3.62,3.62,0,0,0,1.46,5.039,3.943,3.943,0,0,0,5.253-1.4l.018-.033v0h0A1.644,1.644,0,0,1,9.4,10.29a1.508,1.508,0,0,1,.608,2.1,3.62,3.62,0,0,0,1.46,5.04,3.943,3.943,0,0,0,5.253-1.4A3.62,3.62,0,0,0,15.262,10.989Z" transform="translate(0 0.074)" fill="#fff"/>
  </g>
</svg>
