<svg id="Icons_Flag_Libya" data-name="Icons/Flag/Libya" xmlns="http://www.w3.org/2000/svg" width="24" height="24" viewBox="0 0 24 24">
  <g id="Group" transform="translate(4 4)">
    <path id="Path" d="M.794.7a8.017,8.017,0,0,0,0,6.957L8,8.348l7.206-.7a8.017,8.017,0,0,0,0-6.957L8,0Z" transform="translate(0 3.826)"/>
    <path id="Path-2" data-name="Path" d="M0,0A8,8,0,0,0,7.206,4.522,8,8,0,0,0,14.412,0Z" transform="translate(0.794 11.478)" fill="#496e2d"/>
    <path id="Path-3" data-name="Path" d="M0,4.522H14.412A8,8,0,0,0,0,4.522Z" transform="translate(0.794)" fill="#d80027"/>
    <g id="Group-2" data-name="Group" transform="translate(4.406 5.188)">
      <path id="Path-4" data-name="Path" d="M1.064,0,1.72.9,2.783.56l-.657.9.656.9L1.719,2.022l-.657.9V1.808L0,1.462l1.063-.345Z" transform="translate(4.392 1.35)" fill="#f0f0f0"/>
      <path id="Path-5" data-name="Path" d="M3.652,5.043A2.261,2.261,0,1,1,4.728.794a2.783,2.783,0,1,0,0,3.978A2.25,2.25,0,0,1,3.652,5.043Z" transform="translate(0.012 0.03)" fill="#f0f0f0"/>
    </g>
  </g>
</svg>
