<svg id="Icons_Flag_Malaysia" data-name="Icons/Flag/Malaysia" xmlns="http://www.w3.org/2000/svg" width="24" height="24" viewBox="0 0 24 24">
  <g id="Group" transform="translate(4 4)">
    <circle id="Oval" cx="8" cy="8" r="8" transform="translate(0 0)" fill="#f0f0f0"/>
    <g id="Group-2" data-name="Group" transform="translate(0.25 1.719)">
      <path id="Path" d="M0,2.087H8.348A8.009,8.009,0,0,0,8.072,0H0Z" transform="translate(7.402 4.194)" fill="#d80027"/>
      <path id="Path-2" data-name="Path" d="M0,2.087H7.174A8.041,8.041,0,0,0,5.328,0H0Z" transform="translate(7.402 0.02)" fill="#d80027"/>
      <path id="Path-3" data-name="Path" d="M4.98,1.739A7.966,7.966,0,0,0,9.96,0H0A7.966,7.966,0,0,0,4.98,1.739Z" transform="translate(2.77 12.542)" fill="#d80027"/>
      <path id="Path-4" data-name="Path" d="M.9,2.087H14.55A7.953,7.953,0,0,0,15.449,0H0A7.952,7.952,0,0,0,.9,2.087Z" transform="translate(0.026 8.368)" fill="#d80027"/>
    </g>
    <path id="Path-5" data-name="Path" d="M8,8V0A8,8,0,0,0,0,8Z" fill="#0052b4"/>
    <g id="Group-3" data-name="Group" transform="translate(2.094 2.406)">
      <path id="Path-6" data-name="Path" d="M3.2,4.413A1.978,1.978,0,1,1,4.137.694a2.435,2.435,0,1,0,0,3.481A1.97,1.97,0,0,1,3.2,4.413Z" transform="translate(0.03 0.029)" fill="#ffda44"/>
      <path id="Path-7" data-name="Path" d="M1.427,0l.351.734L2.572.551l-.355.732.638.506-.794.179,0,.814-.635-.509-.635.509,0-.814L0,1.789l.638-.506L.283.551l.793.183Z" transform="translate(2.356 1.072)" fill="#ffda44"/>
    </g>
  </g>
</svg>
