<svg id="Icon" xmlns="http://www.w3.org/2000/svg" width="24" height="24" viewBox="0 0 24 24">
  <g id="line-chart" transform="translate(3 3)">
    <path id="Color" d="M11.38,14.053l-.005-.165V8.419a2.512,2.512,0,0,1,5.019-.165l.005.165v5.469a2.512,2.512,0,0,1-5.019.165Zm1.652-5.742-.007.108v5.469A.862.862,0,0,0,14.743,14l.007-.108V8.419a.862.862,0,0,0-1.718-.108Zm-7.34,5.742-.005-.165V11.326a2.513,2.513,0,0,1,5.02-.166l.005.166v2.562a2.513,2.513,0,0,1-5.02.165Zm1.652-2.835-.006.108v2.562A.862.862,0,0,0,9.056,14l.006-.108V11.326a.862.862,0,0,0-1.718-.108ZM.005,14.053,0,13.888V7.951a2.512,2.512,0,0,1,5.019-.166l.005.166v5.937a2.512,2.512,0,0,1-5.019.165Zm1.652-6.21-.007.108v5.937A.863.863,0,0,0,3.369,14l.006-.108V7.951a.862.862,0,0,0-1.718-.108Zm5.818-.214L7.3,7.5,3.315,3.88a.739.739,0,0,0-.833-.042L2.392,3.9,1.4,4.881A.825.825,0,0,1,.171,3.792l.074-.085L1.272,2.693A2.382,2.382,0,0,1,4.2,2.487l.158.118L8.347,6.225a.74.74,0,0,0,.912-.016l.09-.086,3.472-3.648a.825.825,0,0,1,1.266,1.051l-.071.086-3.456,3.63a2.392,2.392,0,0,1-3.085.386Zm7.281-3.762-.006-.1V2.075a.426.426,0,0,0-.349-.419l-.076-.007H12.638a.825.825,0,0,1-.1-1.643l.1-.006h1.688a2.077,2.077,0,0,1,2.069,1.927l.005.149V3.763a.825.825,0,0,1-1.643.1Z" transform="translate(0.8 0.8)" fill="#3756df"/>
  </g>
</svg>
