<svg id="Icon" xmlns="http://www.w3.org/2000/svg" width="24" height="24" viewBox="0 0 24 24">
  <g id="money-2" transform="translate(3 3)">
    <path id="Color" d="M8.95,14.8a.915.915,0,0,1-.2-1.277.915.915,0,0,1,1.277-.2,3.975,3.975,0,0,0,2.32.68,4.12,4.12,0,0,0,2.146-.562l.175-.118A.915.915,0,0,1,15.737,14.8a5.815,5.815,0,0,1-3.394,1.031A5.81,5.81,0,0,1,8.95,14.8Zm-8.572,0a.915.915,0,0,1-.2-1.277.915.915,0,0,1,1.277-.2,3.975,3.975,0,0,0,2.32.68,4.115,4.115,0,0,0,2.146-.562l.175-.118A.915.915,0,0,1,7.165,14.8a5.81,5.81,0,0,1-3.393,1.031A5.815,5.815,0,0,1,.378,14.8ZM.036,10.272c0-1.514,1.656-2.7,3.771-2.7s3.772,1.186,3.772,2.7-1.657,2.7-3.772,2.7S.036,11.786.036,10.272Zm2.236-.488c-.251.157-.407.344-.407.488s.156.33.407.487a2.985,2.985,0,0,0,1.535.384,2.991,2.991,0,0,0,1.536-.384c.251-.158.407-.344.407-.487s-.156-.33-.407-.488A2.991,2.991,0,0,0,3.807,9.4,2.985,2.985,0,0,0,2.272,9.784ZM8.95,11.9a.914.914,0,0,1-.2-1.276.915.915,0,0,1,1.277-.2,4.033,4.033,0,0,0,2.32.679,4.115,4.115,0,0,0,2.146-.562l.175-.118A.914.914,0,1,1,15.737,11.9a5.813,5.813,0,0,1-3.394,1.031A5.809,5.809,0,0,1,8.95,11.9Zm0-2.893a.914.914,0,0,1,1.073-1.481,4.033,4.033,0,0,0,2.32.679,4.115,4.115,0,0,0,2.146-.562l.175-.118a.914.914,0,1,1,1.073,1.481,5.813,5.813,0,0,1-3.394,1.031A5.809,5.809,0,0,1,8.95,9.012ZM8.608,4.486c0-1.514,1.656-2.7,3.771-2.7s3.772,1.186,3.772,2.7-1.657,2.7-3.772,2.7S8.608,6,8.608,4.486ZM10.843,4c-.251.158-.408.344-.408.488s.157.33.408.488a2.98,2.98,0,0,0,1.535.383,2.98,2.98,0,0,0,1.535-.383c.251-.157.408-.344.408-.488s-.157-.33-.408-.488a2.98,2.98,0,0,0-1.535-.383A2.98,2.98,0,0,0,10.843,4ZM2.9,6.092l-.006-.106V3.736a.914.914,0,0,1,1.823-.107l.006.107v2.25A.914.914,0,0,1,2.9,6.092ZM5.753,3.5l-.094-.082L4.225,1.978a.507.507,0,0,0-.654-.055l-.06.051L2.1,3.411A.915.915,0,0,1,.81,3.424a.919.919,0,0,1-.095-1.2L.8,2.132,2.211.687A2.336,2.336,0,0,1,5.383.56L5.52.687,6.954,2.126a.916.916,0,0,1,0,1.293.907.907,0,0,1-.645.266A.92.92,0,0,1,5.753,3.5Z" transform="translate(0.818 0.8)" fill="#3756df"/>
  </g>
</svg>
