<svg id="Icons_Tab_2" data-name="Icons/Tab/2" xmlns="http://www.w3.org/2000/svg" width="34" height="34" viewBox="0 0 34 34">
  <path id="Combined_Shape" data-name="Combined Shape" d="M5.666,23.375a5.66,5.66,0,0,1-5.66-5.383L0,17.71V5.666A5.66,5.66,0,0,1,5.383.006L5.666,0h8.147a5.658,5.658,0,0,1,5.658,5.383l.008.283V17.71A5.659,5.659,0,0,1,14.1,23.368l-.283.006ZM2.486,5.448l-.008.218V17.71a3.194,3.194,0,0,0,2.969,3.179l.218.008h8.147a3.2,3.2,0,0,0,3.18-2.969L17,17.71V5.666a3.191,3.191,0,0,0-3.186-3.187H5.666A3.2,3.2,0,0,0,2.486,5.448ZM6.33,18.2a1.24,1.24,0,0,1,0-2.48h6.11a1.24,1.24,0,0,1,0,2.48Zm0-3.409a1.239,1.239,0,1,1,0-2.479h6.11a1.239,1.239,0,0,1,0,2.479ZM5.224,9.65a1.461,1.461,0,1,1,1.461,1.461A1.461,1.461,0,0,1,5.224,9.65Zm7.924.089A3.457,3.457,0,0,1,9.7,6.287V4.781a1.24,1.24,0,0,1,2.48,0V6.287a.974.974,0,0,0,.973.973h1.506a1.24,1.24,0,0,1,0,2.48Z" transform="translate(8.146 5.313)" fill="#3756df"/>
</svg>
