<svg id="Icon" xmlns="http://www.w3.org/2000/svg" width="24" height="24" viewBox="0 0 24 24">
  <g id="computer" transform="translate(3 3)">
    <path id="Shape" d="M14.375,14.313H2.125a2.125,2.125,0,0,1-.151-4.245l.151,0h12.25a2.125,2.125,0,0,1,.152,4.244Zm-12.25-2.5a.375.375,0,0,0-.076.743l.076.007h12.25a.375.375,0,1,0,0-.75Zm12.25-2.344a.875.875,0,0,1-.868-.765l-.007-.11V7.718a.875.875,0,0,1,1.743-.11l.006.11v.876A.876.876,0,0,1,14.375,9.469Zm-12.25,0A.876.876,0,0,1,1.256,8.7l-.006-.11V4a4,4,0,0,1,3.8-4l.2,0H6.406a.875.875,0,0,1,.11,1.743l-.11.006H5.25a2.256,2.256,0,0,0-2.245,2.1L3,4V8.594A.876.876,0,0,1,2.125,9.469Z" transform="translate(0.75 2.938)" fill="#3756df"/>
    <path id="Shape-2" data-name="Shape" d="M4.361,8.75h0L4.1,8.743A4.319,4.319,0,0,1,2.413,8.3a.748.748,0,0,0-.782.072l-.081.07-.056.057a.875.875,0,0,1-1.486-.5L0,7.875V4.415A4.383,4.383,0,0,1,4.375,0,4.365,4.365,0,0,1,8.75,4.418a4.339,4.339,0,0,1-1.3,3.071A4.392,4.392,0,0,1,4.609,8.744ZM2.08,6.467h0a2.49,2.49,0,0,1,.936.183l.176.079a2.573,2.573,0,0,0,.961.264l.2.008A2.63,2.63,0,0,0,6.241,2.523a2.625,2.625,0,0,0-3.729.008,2.587,2.587,0,0,0-.756,1.662L1.751,4.4V6.491l.113-.014Z" transform="translate(8.484 0.75)" fill="#3ad29f"/>
  </g>
</svg>
