<svg xmlns="http://www.w3.org/2000/svg" width="23.375" height="23.375" viewBox="0 0 23.375 23.375">
  <path id="Combined_Shape" data-name="Combined Shape" d="M18.3,23.375a1.3,1.3,0,0,1,0-2.6h2.478V18.3a1.3,1.3,0,0,1,1.147-1.29L22.076,17a1.3,1.3,0,0,1,1.3,1.3v3.777a1.3,1.3,0,0,1-1.3,1.3Zm-17,0a1.3,1.3,0,0,1-1.3-1.3V18.3a1.3,1.3,0,0,1,2.6,0v2.478h2.48a1.3,1.3,0,0,1,1.291,1.147l.008.151a1.3,1.3,0,0,1-1.3,1.3Zm15.638-4.6a1,1,0,0,1-1-1V5.6a1,1,0,0,1,1-1h.833a1,1,0,0,1,1,1V17.771a1,1,0,0,1-1,1Zm-6.666-1.417a1.417,1.417,0,1,1,1.417,1.417A1.417,1.417,0,0,1,10.271,17.354ZM5.6,18.77a1,1,0,0,1-1-1V5.6a1,1,0,0,1,1-1h.833a1,1,0,0,1,1,1V17.771a1,1,0,0,1-1,1ZM11.271,13.1a1,1,0,0,1-1-1V5.6a1,1,0,0,1,1-1H12.1a1,1,0,0,1,1,1v6.5a1,1,0,0,1-1,1Zm9.507-8.028V2.6H18.3a1.3,1.3,0,0,1-1.29-1.147L17,1.3A1.3,1.3,0,0,1,18.3,0h3.777a1.3,1.3,0,0,1,1.3,1.3V5.076a1.3,1.3,0,1,1-2.6,0ZM0,5.076V1.3A1.3,1.3,0,0,1,1.3,0H5.076a1.3,1.3,0,0,1,0,2.6H2.6v2.48A1.3,1.3,0,0,1,1.45,6.367L1.3,6.375A1.3,1.3,0,0,1,0,5.076Z" fill="#3756df"/>
</svg>
