<svg xmlns="http://www.w3.org/2000/svg" width="12" height="18" viewBox="0 0 12 18">
  <path id="Shape" d="M6.667,18H4V16.2H0V13.642H1.264V4.358H0V1.8H4V0h2.67V1.8H6.8A4.252,4.252,0,0,1,9.758,2.978a3.866,3.866,0,0,1,.41,5.2,4.7,4.7,0,0,1,.461.386A4.338,4.338,0,0,1,12,11.727,4.58,4.58,0,0,1,7.329,16.2H6.667V18ZM3.935,9.812v3.83H7.329a1.962,1.962,0,0,0,2-1.915,1.861,1.861,0,0,0-.589-1.352,2.031,2.031,0,0,0-1.412-.563Zm0-5.454v2.9H6.8A1.485,1.485,0,0,0,8.316,5.808,1.408,1.408,0,0,0,7.87,4.784,1.538,1.538,0,0,0,6.8,4.358Z" transform="translate(0 0)" fill="#f6f8fb"/>
</svg>
