<svg xmlns="http://www.w3.org/2000/svg" width="327.244" height="11.499" viewBox="0 0 327.244 11.499">
  <g id="Bars_Status_Bar_iPhone_Light" data-name="Bars / Status Bar / iPhone / Light" transform="translate(-0.417 -0.167)">
    <g id="Battery" transform="translate(303)">
      <g id="Border" transform="translate(0.333 0.333)" fill="none" stroke="#000" stroke-miterlimit="10" stroke-width="1" opacity="0.35">
        <rect width="22" height="11.333" rx="2.667" stroke="none"/>
        <rect x="0.5" y="0.5" width="21" height="10.333" rx="2.167" fill="none"/>
      </g>
      <path id="Cap" d="M0,0V4A2.17,2.17,0,0,0,1.328,2,2.17,2.17,0,0,0,0,0" transform="translate(23.333 4)" opacity="0.4"/>
      <rect id="Capacity" width="18" height="7.333" rx="1.333" transform="translate(2.333 2.333)"/>
    </g>
    <path id="Wifi" d="M7.445,10.907,5.439,8.885a.309.309,0,0,1-.094-.231.314.314,0,0,1,.1-.227,3.437,3.437,0,0,1,4.437,0,.315.315,0,0,1,.009.458L7.889,10.907a.313.313,0,0,1-.445,0Zm3.53-3.542a4.928,4.928,0,0,0-6.612,0,.311.311,0,0,1-.435-.005L2.768,6.189a.322.322,0,0,1,0-.46,7.193,7.193,0,0,1,9.791,0,.322.322,0,0,1,0,.46L11.409,7.36a.311.311,0,0,1-.435.005Zm2.669-2.7a8.68,8.68,0,0,0-11.955,0,.308.308,0,0,1-.435,0L.094,3.5a.323.323,0,0,1,0-.457,10.947,10.947,0,0,1,15.141,0,.323.323,0,0,1,0,.457l-1.161,1.17a.308.308,0,0,1-.435,0Z" transform="translate(283 0.331)"/>
    <path id="Cellular_Connection" data-name="Cellular Connection" d="M15,10.667a1,1,0,0,1-1-1V1a1,1,0,0,1,1-1h1a1,1,0,0,1,1,1V9.667a1,1,0,0,1-1,1Zm-4.667,0a1,1,0,0,1-1-1V3.334a1,1,0,0,1,1-1h1a1,1,0,0,1,1,1V9.667a1,1,0,0,1-1,1Zm-4.667,0a1,1,0,0,1-1-1v-4a1,1,0,0,1,1-1h1a1,1,0,0,1,1,1v4a1,1,0,0,1-1,1ZM1,10.667a1,1,0,0,1-1-1v-2a1,1,0,0,1,1-1H2a1,1,0,0,1,1,1v2a1,1,0,0,1-1,1Z" transform="translate(261 0.667)"/>
    <g id="Time_Style" data-name="Time Style">
      <path id="_9:41" data-name="9:41" d="M3.867,11.089A4.017,4.017,0,0,1,1.4,10.31,3.288,3.288,0,0,1,.147,8.24H2.029a1.825,1.825,0,0,0,1.86,1.3c1.537,0,2.432-1.423,2.454-3.9H6.218A2.912,2.912,0,0,1,3.479,7.214,3.379,3.379,0,0,1,0,3.706,3.613,3.613,0,0,1,1.1,1.043,4.069,4.069,0,0,1,3.926,0,3.789,3.789,0,0,1,6.987,1.4,6.354,6.354,0,0,1,8.152,5.42,6.9,6.9,0,0,1,7.018,9.592,3.791,3.791,0,0,1,3.867,11.089ZM3.94,1.538a2.052,2.052,0,0,0-2.087,2.11,2,2,0,0,0,2.08,2.109,2.016,2.016,0,0,0,2.1-2.073A2.071,2.071,0,0,0,3.94,1.538ZM28.5,10.832h-1.89V2.124h-.124l-2.629,1.86V2.205L26.618.264H28.5V10.831Zm-7.347,0H19.344V8.8H14.18V7.259C15.527,4.919,17.016,2.5,18.487.264h2.666v6.98h1.428V8.8H21.153v2.028Zm-1.882-9.06c-1.222,1.867-2.408,3.786-3.34,5.405v.11h3.443V1.772Zm-8.1,7.6a1.136,1.136,0,1,1,0-2.271,1.136,1.136,0,1,1,0,2.271Zm0-5.377A1.116,1.116,0,0,1,10,2.857a1.172,1.172,0,0,1,2.344,0A1.116,1.116,0,0,1,11.17,3.992Z" transform="translate(0.417 0.167)"/>
    </g>
  </g>
</svg>
