<svg id="Group_Copy" data-name="Group Copy" xmlns="http://www.w3.org/2000/svg" xmlns:xlink="http://www.w3.org/1999/xlink" width="375" height="629" viewBox="0 0 375 629">
  <defs>
    <clipPath id="clip-path">
      <path id="Combined_Shape" data-name="Combined Shape" d="M186.4,629c-2.916,0-5.831-.03-8.733-.1-.55,0-1.1,0-1.651-.03a543.184,543.184,0,0,1-97.351-10.8c-1.562-.328-3.124-.655-4.686-1A534.857,534.857,0,0,1,0,595.654V0H375V595.654a536.987,536.987,0,0,1-84.556,23.572c-1.577.312-3.154.595-4.73.878A543.422,543.422,0,0,1,187.9,629Z" transform="translate(0)" fill="#1d2238"/>
    </clipPath>
    <linearGradient id="linear-gradient" x1="0.5" y1="1" x2="0.5" gradientUnits="objectBoundingBox">
      <stop offset="0" stop-color="gray" stop-opacity="0.251"/>
      <stop offset="0.54" stop-color="gray" stop-opacity="0.122"/>
      <stop offset="1" stop-color="gray" stop-opacity="0.102"/>
    </linearGradient>
  </defs>
  <path id="Combined_Shape-2" data-name="Combined Shape" d="M186.4,629c-2.916,0-5.831-.03-8.733-.1-.55,0-1.1,0-1.651-.03a543.184,543.184,0,0,1-97.351-10.8c-1.562-.328-3.124-.655-4.686-1A534.857,534.857,0,0,1,0,595.654V0H375V595.654a536.987,536.987,0,0,1-84.556,23.572c-1.577.312-3.154.595-4.73.878A543.422,543.422,0,0,1,187.9,629Z" transform="translate(0)" fill="#1d2238"/>
  <g id="Group_Copy-2" data-name="Group Copy" clip-path="url(#clip-path)">
    <g id="undraw_successful_purchase_uyin" transform="translate(-99.324 279)">
      <rect id="Rectangle" width="46" height="17" rx="5.17" transform="translate(186.324 45)" fill="#3756df" opacity="0.1"/>
      <rect id="Rectangle-2" data-name="Rectangle" width="46" height="17" rx="5.17" transform="translate(320.324 29)" fill="#3756df" opacity="0.1"/>
      <rect id="Rectangle-3" data-name="Rectangle" width="46" height="17" rx="5.17" transform="translate(296.324 202)" fill="#3756df" opacity="0.1"/>
      <rect id="Rectangle-4" data-name="Rectangle" width="46" height="17" rx="5.17" transform="translate(315.324 220)" fill="#3756df" opacity="0.1"/>
      <rect id="Rectangle-5" data-name="Rectangle" width="46" height="17" rx="5.17" transform="translate(281.324 238)" fill="#3756df" opacity="0.1"/>
      <path id="Shape" d="M77.136,400.908c-6.365-.554-6.6-3.9-6.066-6.044-.858-2.443.892-5.9,2.354-7.593,2.477-2.9,1.653-13.225,2.889-17.358a3.322,3.322,0,0,1,2-2.318c.734-4.5,1.54-11.851,2.042-16.719l.085-.8a22.21,22.21,0,0,1-2.065-.825l-.824-43.8a102.787,102.787,0,0,1-1.236-22.316c.824-10.749-1.236-32.647-1.236-32.647-4.537,1.245-4.125,61.573-4.125,61.573v39.245a17.393,17.393,0,0,1-3.493,2.414,7.858,7.858,0,0,0-.085.877,48.934,48.934,0,0,0,.977,11.031c.332-.153.535-.266.535-.266s2.884,3.3.824,6.61c-1.016,1.634-1.23,7.113-1.185,12.23l.361,2.646c2.065,10.329-.824,10.329-.824,10.329a32.962,32.962,0,0,1-11.957,0c-6.184-1.238-7.42-11.986-5.36-15.7s1.236-11.569,1.236-11.569c.6-10.482,3.358-13.151,4.836-13.824-.04-.4-.085-.859-.113-1.159s-.062-.582-.091-.865a14.948,14.948,0,0,1-4.22-2.742c-3.3-9.917-2.06-40.081-2.06-40.081l-1.264-17.777s-4.537-21.9-7.426-52.48a146.038,146.038,0,0,1-.355-25.856q.119-1.408.265-2.7A72.168,72.168,0,0,1,43.7,200.84c.079-.288.158-.56.237-.814a36.613,36.613,0,0,0-13.418,2.109c7.014-6.18,7.426-44.627,7.426-44.627V127.763a4.112,4.112,0,0,1-.378-.47c-3.443-4.9-6.343-25.669-8.188-42.478L6.3,82.407,0,82.724,7.392,17.8H9.807l.056-.825L20.021,18.46a28.562,28.562,0,0,1,.564-7.039C19.53,7.18,18.92-.572,28.851.033c8.487.515,7.51,5.688,5.575,9.51,2.318,3.477,3.193,8.243,3.515,11.528l11.528,1.7L44.956,86.4l-1.964-.2c.858,6.779,6.5,15.079,6.5,15.079v.565c.259-.373.412-.565.412-.565a20.043,20.043,0,0,0,6.5,9.239,7.98,7.98,0,0,0,2.579-1.838,5.226,5.226,0,0,0,.761-2.827c.045-.491.045-.989.045-1.487a30.059,30.059,0,0,0-.841-6.553c-.688-2.9-1.829-5.7-2.257-8.656a14.462,14.462,0,0,1-.147-2.471A9.474,9.474,0,0,1,58.674,79.9c1.129-1.238,2.658-2.019,3.9-3.149,3.465-3.116,4.87-8.781,9.356-10.02a10.1,10.1,0,0,1,4.3,0c2.652.436,5.186,1.612,7.838,1.895,2.889.305,5.711.051,8.577.769a12.645,12.645,0,0,1,7.815,5.236c2.2,3.59,1.75,8.141,2.59,12.274.723,3.568,2.454,7.079,2.325,10.647a9.942,9.942,0,0,1-.147,2.21c-.558,3.042-2.658,5.575-3.56,8.532a14.188,14.188,0,0,0-.564,3.228c.982-.672,1.58-1.13,1.58-1.13a27.761,27.761,0,0,0,6.206-9.092c2.478-5.79,9.486-17.357,9.486-17.357a20.475,20.475,0,0,0,1.236-5.784c0-1.55,9.147-18.053,16.031-30.249l.463-4.048,1.631.311c3.109-5.484,5.367-9.408,5.367-9.408s2.059-18.6,11.956-9.5a11.127,11.127,0,0,1,3.488,4.982c4.13,4.258,3.837,12.377,3.667,14.639l6.659-.854,7.437-1.13L197,103.066,182.176,109.3l-12.256.956.046,3.466-16.082,1.238-25.156-6.22,3.217-28.117-1.569,3.325-3.3,6.219s-10.246,36.311-22.131,45.006c-.152.113-.3.22-.463.322-.056.345-.09.537-.09.537l-.22.995c-1.253,5.654-2.015,11.4-2.714,17.149-.564,4.348-4.514,8.306-4.514,8.306-7.008,13.247,4.125,39.255,4.125,39.255s-.5.131-1.388.351c.141.238.288.481.423.718.869,1.526,1.648,3.064,2.347,4.6q.61,1.323,1.129,2.646c8.436,21.327,2.031,42.106,2.031,42.106l-2.432,17.069a123.685,123.685,0,0,1-4.48,19.111c-1.743,5.631-.508,12.58-.508,12.58s1.653,26.449-1.236,33.059-2.478,16.114-2.478,16.114a11.131,11.131,0,0,1-3.487,1.227c-.1.311-.185.577-.276.877-1.517,5.27-1.693,13.27-1.659,17.6a4.98,4.98,0,0,1,1.3,3.438s.113.424.238,1.091c1.45.735.564,6.344.564,6.344s-1.648,6.61-.412,10.33,0,5.783,0,5.783S87.232,401,79.228,401C78.562,401,77.865,400.971,77.136,400.908Z" transform="translate(209.324)" fill="url(#linear-gradient)"/>
      <path id="Path" d="M31,59.812,16.66,66,0,5.944l3.908-4.8L11.07,0,31,59.812Z" transform="translate(373.324 44)" fill="#3756df"/>
      <path id="Path-2" data-name="Path" d="M31,59.812,16.66,66,0,5.944l3.908-4.8L11.07,0,31,59.812Z" transform="translate(373.324 44)" fill="#fff" opacity="0.2"/>
      <path id="Path-3" data-name="Path" d="M25.126,0,0,3.309,12.879,67,38,65,25.126,0Z" transform="translate(352.324 45)" fill="#3756df"/>
      <path id="Path-4" data-name="Path" d="M25.126,0,0,3.309,12.879,67,38,65,25.126,0Z" transform="translate(352.324 45)" fill="#f6f8fb" opacity="0.07"/>
      <path id="Path-5" data-name="Path" d="M7.864,17l-.4-.05C7.468,16.8,9.119,2.23,0,.392L.077,0C9.586,1.915,7.9,16.851,7.864,17Z" transform="translate(362.324 30)" fill="#535461"/>
      <rect id="Rectangle-6" data-name="Rectangle" width="29" height="41" transform="translate(275.324 92)" fill="#774e55"/>
      <rect id="Rectangle-7" data-name="Rectangle" width="29" height="41" transform="translate(275.324 92)" opacity="0.2"/>
      <path id="Path-6" data-name="Path" d="M16,64.762,0,66,2.463,3.3,7.793,0l7.384,1.238L16,64.762Z" transform="translate(362.324 51)" fill="#3756df"/>
      <path id="Path-7" data-name="Path" d="M16,64.762,0,66,2.463,3.3,7.793,0l7.384,1.238L16,64.762Z" transform="translate(362.324 51)" opacity="0.2"/>
      <path id="Path-8" data-name="Path" d="M33,4.887,7.425,0,0,63.9,25.164,70,33,4.887Z" transform="translate(337.324 47)" fill="#3ad29f"/>
      <path id="Path-9" data-name="Path" d="M10.8,0H7.2L0,65l16-.825L10.8,0Z" transform="translate(210.324 20)" fill="#3756df"/>
      <path id="Path-10" data-name="Path" d="M10.8,0H7.2L0,65l16-.825L10.8,0Z" transform="translate(210.324 20)" opacity="0.2"/>
      <path id="Path-11" data-name="Path" d="M4.42,0,0,64.892,38.58,69,43,5.75,4.42,0Z" transform="translate(215.324 19)" fill="#3ad29f"/>
      <path id="Path-12" data-name="Path" d="M8.4,0S3.164-.4,2.288,13.759c0,0,.876,7.685-1.311,11.329S.1,39.248,6.655,40.463a37.716,37.716,0,0,0,12.684,0s3.056,0,.876-10.114L15.848.813Z" transform="translate(258.324 354)" fill="#5c3d53"/>
      <path id="Path-13" data-name="Path" d="M8.4,0S3.164-.4,2.288,13.759c0,0,.876,7.685-1.311,11.329S.1,39.248,6.655,40.463a37.716,37.716,0,0,0,12.684,0s3.056,0,.876-10.114L15.848.813Z" transform="translate(258.324 354)" opacity="0.05"/>
      <path id="Path-14" data-name="Path" d="M21.876,23.06a27.713,27.713,0,0,0,.86,9.649L12.176,35.58s-17.467,2.463-10.56-4.54C4,28.627,5.179,24.49,5.691,20.12a61.108,61.108,0,0,0,.3-8.99,80.913,80.913,0,0,0-.719-8.4S30.863-6.295,25.175,8.473a52.912,52.912,0,0,0-2.445,8.23A43.8,43.8,0,0,0,21.876,23.06Z" transform="translate(270.324 95)" fill="#f8bdc5"/>
      <path id="Path-15" data-name="Path" d="M20.165,8.429a51.924,51.924,0,0,0-2.476,8.187A17.816,17.816,0,0,1,.729,11.071,79.076,79.076,0,0,0,0,2.715S25.926-6.262,20.165,8.429Z" transform="translate(275.324 95)" opacity="0.1"/>
      <circle id="Oval" cx="17.5" cy="17.5" r="17.5" transform="translate(272.324 76)" fill="#f8bdc5"/>
      <path id="Path-16" data-name="Path" d="M29,99.565v5.282L20.065,128l-2.439-2.439a4.1,4.1,0,0,1-.371-.461c-5.9-8.384-10.193-64.125-10.193-64.125L1.382,13.844S-4.709-.766,8.687.032s2.843,13.4,2.843,13.4,8.935,44.681,7.715,46.305,0,6.5,0,6.5,3.658,9.345,3.248,16.246S29,99.565,29,99.565Z" transform="translate(229.324 4)" fill="#f8bdc5"/>
      <path id="Path-17" data-name="Path" d="M51.956,15.517,30.342,60.3,27.019,66.4s-10.35,35.779-22.3,44.347A10.983,10.983,0,0,1,2.5,112L0,92.454l2.3-5.678.172-.434a27.331,27.331,0,0,0,6.233-8.956c2.5-5.7,9.562-17.1,9.562-17.1a19.786,19.786,0,0,0,1.248-5.7c0-2.445,23.69-42.753,23.69-42.753S45.28-6.49,55.28,2.466,51.956,15.517,51.956,15.517Z" transform="translate(308.324 25)" fill="#f8bdc5"/>
      <path id="Path-18" data-name="Path" d="M13,18.284S-1.252,24.108.423,18.7c1.021-3.28.644-9.479.191-13.812C.325,2.06,0,0,0,0L12.177,1.249a9.721,9.721,0,0,0-.7,3.309C11.075,10.077,13,18.284,13,18.284Z" transform="translate(265.324 349)" fill="#f8bdc5"/>
      <path id="Path-19" data-name="Path" d="M12.406,5.941c-2.028,7.173-1.5,19.665-1.5,19.665S-1.082,27.181.079,24.031C.887,21.851,2.069,11.048,2.711,4.7c.284-2.774.46-4.7.46-4.7L14,2.365A11.12,11.12,0,0,0,12.406,5.941Z" transform="translate(286.324 344)" fill="#f8bdc5"/>
      <path id="Path-20" data-name="Path" d="M0,0,12,1.256a9.954,9.954,0,0,0-.691,3.329,12.1,12.1,0,0,1-10.686.33C.32,2.067,0,0,0,0Z" transform="translate(264.324 348)" opacity="0.1"/>
      <path id="Path-21" data-name="Path" d="M12,2.315a10.516,10.516,0,0,0-1.705,3.512A23.393,23.393,0,0,1,0,4.608C.3,1.887.489,0,.489,0Z" transform="translate(288.324 345)" opacity="0.1"/>
      <path id="Path-22" data-name="Path" d="M64.662,53.9,62.232,70.65A119.413,119.413,0,0,1,57.749,89.4c-1.745,5.524-.508,12.339-.508,12.339S58.89,127.683,56,134.172s-2.475,15.81-2.475,15.81c-6.6,3.651-16.077-.813-16.077-.813L36.625,106.2a98.964,98.964,0,0,1-1.238-21.873C36.209,73.8,34.15,52.3,34.15,52.3c-4.563,1.217-4.123,60.4-4.123,60.4v38.514c-9.895,8.514-18.552,0-18.552,0-3.3-9.731-2.059-39.327-2.059-39.327L8.178,94.458A504.052,504.052,0,0,1,.764,42.972,140.654,140.654,0,0,1,.41,17.605q.12-1.38.262-2.653A69.714,69.714,0,0,1,2.805,3.6,25.276,25.276,0,0,1,4.06,0l44.3,2.025,2.612.118,6.273.286c.684,1.015,1.329,2.047,1.928,3.079.867,1.5,1.648,3.006,2.344,4.487.4.864.776,1.733,1.141,2.6C71.078,33.505,64.662,53.9,64.662,53.9Z" transform="translate(250.324 197)" fill="#3ad29f"/>
      <path id="Path-23" data-name="Path" d="M16,.005S14.012,18.343,0,13.036q.123-1.327.269-2.551C3.566,11.31,12.691,12.448,13.036,0Z" transform="translate(250.324 202)" opacity="0.1"/>
      <path id="Path-24" data-name="Path" d="M13,11.227C4.368,14.756,1.113,5.361,0,0L2.382.125c1.295,8.431,6.464,8.925,9.61,8.33Q12.522,9.865,13,11.227Z" transform="translate(298.324 199)" opacity="0.1"/>
      <path id="Path-25" data-name="Path" d="M9.128,5.467C7.059,5.142,3.9,4,4.889.027c0,0-3.83-1.323-3.426,14.485,0,0-.4,7.7-1.217,9.326s0,11.35,8.512,10.537c0,0,6.078,2.024,7.7-1.217,0,0-1.217-18.646.813-21.871S16.456,4.8,16.456,4.8s-2.871,1.593-4.934,1.122A21.7,21.7,0,0,0,9.128,5.467Z" transform="translate(262.324 359)" fill="#5c3d53"/>
      <path id="Path-26" data-name="Path" d="M.912,18.286S-3.305,25.111,6.4,25.91,20.31,21.9,20.31,21.9s1.266-2,0-5.62.42-10.034.42-10.034S22-1.383,19.044.222.912,18.286.912,18.286Z" transform="translate(279.324 372)" fill="#5c3d53"/>
      <path id="Path-27" data-name="Path" d="M.912,18.286S-3.305,25.111,6.4,25.91,20.31,21.9,20.31,21.9s1.266-2,0-5.62.42-10.034.42-10.034S22-1.383,19.044.222.912,18.286.912,18.286Z" transform="translate(279.324 372)" opacity="0.05"/>
      <path id="Path-28" data-name="Path" d="M12.2.511S7.02-1.533,5.725,2.556,5.295,16.885,2.7,19.75-3.339,30.392,7.02,29.985,19.558,26.3,19.558,26.3s-.43-10.234.866-13.1,0-7.363,0-7.363S20.824.075,12.2.511Z" transform="translate(279.324 367)" fill="#5c3d53"/>
      <circle id="Oval-2" data-name="Oval" cx="1" cy="1" r="1" transform="translate(229.324 24)" opacity="0.2"/>
      <circle id="Oval-3" data-name="Oval" cx="1" cy="1" r="1" transform="translate(246.324 26)" opacity="0.2"/>
      <path id="Path-29" data-name="Path" d="M18,19h-.409c0-.171.29-16.957-9.653-18.5A5.341,5.341,0,0,0,3.178,1.774C-.928,5.721.77,16.869.787,16.98l-.4.061C.31,16.572-1.359,5.578,2.894,1.493A5.724,5.724,0,0,1,8,.1C18.294,1.7,18,18.829,18,19Z" transform="translate(230.324 8)" fill="#535461"/>
      <path id="Path-30" data-name="Path" d="M1.98,19l-.312-.175C1.72,18.69,7.074,5.094,0,.355L.173,0C7.521,4.925,2.038,18.859,1.98,19Z" transform="translate(362.324 30)" fill="#535461"/>
      <path id="Path-31" data-name="Path" d="M22,12.683,11.782,15.577S-5.12,18.059,1.564,11C3.875,8.572,5.012,4.4,5.506,0c2.67,4.4,5.884,3.151,5.884,3.151l9.745-.2h.038A28.86,28.86,0,0,0,22,12.683Z" transform="translate(270.324 116)" opacity="0.1"/>
      <path id="Path-32" data-name="Path" d="M4.711,23.776A11.051,11.051,0,0,1,2.493,25L0,5.955,2.3.423,2.872,0C8.06,1.411,5.383,19.654,4.711,23.776Z" transform="translate(309.324 112)" opacity="0.1"/>
      <path id="Path-33" data-name="Path" d="M12,0V5.387L2.871,29,.379,26.513A4.185,4.185,0,0,1,0,26.043C1.079,13.732,12,0,12,0Z" transform="translate(246.324 103)" opacity="0.1"/>
      <path id="Path-34" data-name="Path" d="M57,5.461c-5.832,1.407-36.275,8.3-45.308,1.774A21.11,21.11,0,0,0,0,3.565,24.734,24.734,0,0,1,1.269,0l44.8,2.008,2.642.117,6.345.284Q56.094,3.926,57,5.461Z" transform="translate(253.324 197)" opacity="0.1"/>
      <path id="Path-35" data-name="Path" d="M0,0S6,9,10,0" transform="translate(232.324 6)" fill="#f8bdc5"/>
      <path id="Path-36" data-name="Path" d="M.251,0S-2,12.168,7,6.491" transform="translate(358.324 27)" fill="#f8bdc5"/>
      <g id="Group" transform="translate(254.324 197)" opacity="0.1">
        <path id="Path-37" data-name="Path" d="M12.715,4.015c-.2-2.471-.35-4.015-.35-4.015C7.781,1.219,8.222,60.478,8.222,60.478V99.039A14.541,14.541,0,0,1,0,102.784c2.991.258,6.555-.562,10.314-3.745V60.478S9.993,17.537,12.715,4.015Z" transform="translate(15.872 52.779)"/>
        <path id="Path-38" data-name="Path" d="M58.908,12.607c-.35-.865-.722-1.735-1.146-2.6-.7-1.5-1.484-3.015-2.355-4.492-.573-1.033-1.249-2.061-1.937-3.083l-6.3-.286-2.624-.118L.04,0,0,.09,42.475,2.027l2.624.118,6.3.286c.688,1.016,1.335,2.05,1.937,3.083.871,1.5,1.656,3.01,2.355,4.492.4.865.779,1.735,1.146,2.6,8.469,20.945,2.04,41.357,2.04,41.357L56.439,70.731a119.217,119.217,0,0,1-4.5,18.772c-1.753,5.531-.51,12.354-.51,12.354s1.656,25.977-1.243,32.474-2.487,15.83-2.487,15.83a12.221,12.221,0,0,1-5.191,1.4,13.408,13.408,0,0,0,7.26-1.4s-.413-9.338,2.487-15.83,1.243-32.474,1.243-32.474S52.25,95.029,54,89.5a119.217,119.217,0,0,0,4.5-18.772l2.441-16.768S67.377,33.541,58.908,12.607Z" transform="translate(0.011 0.432)"/>
      </g>
      <path id="Path-39" data-name="Path" d="M52.233,16.5c5.611,2.659,18.741-7.554,18.741-7.554C76.653,10.581,72.6,34.255,72.6,34.255l-.219.982C71.143,40.821,70.4,46.5,69.706,52.175c-.522,4.285-4.41,8.2-4.41,8.2-6.9,13.059,4.057,38.772,4.057,38.772s-35.288,9.389-45.018,2.038S0,99.557,0,99.557c6.9-6.12,7.294-44.079,7.294-44.079V26.119C8.108,13.872,19.078,0,19.078,0A20.385,20.385,0,0,0,36.04,13.488c2.766,4.517,6.172,3.246,6.172,3.246Z" transform="translate(240.324 103)" fill="#3756df"/>
      <path id="Path-40" data-name="Path" d="M27.414.231a10.346,10.346,0,0,0-4.352,0c-4.543,1.242-5.97,6.913-9.478,10.026-1.26,1.145-2.815,1.911-3.959,3.153-2.034,2.209-2.445,5.482-2.011,8.441S9.2,27.615,9.926,30.516a29.7,29.7,0,0,1,.8,8.882,5.186,5.186,0,0,1-.774,2.81c-.838,1.145-2.381,1.505-3.468,2.421-3.317,2.827-.578,8.693-3.011,12.3C2.43,58.495.471,59.525.072,61.356A6.007,6.007,0,0,0,.98,65.162c1.549,3.148,3.155,6.381,5.779,8.727s5.866,3.525,9.091,4.721c.977.361,2.2.675,2.947-.04.919-.893.225-2.4-.41-3.508-1.006-1.717-1.792-3.788-1.2-5.723s2.479-3.216,3.751-4.83c3.277-4.178,2.2-10.175.578-15.211-.688-2.123-1.462-4.384-.878-6.541.249-.927.74-1.768,1.052-2.678,1.387-4.052-.942-8.5-.26-12.722a18.158,18.158,0,0,1,1.734-4.733l3.67-7.812a7.711,7.711,0,0,1,1.624-2.529A5.818,5.818,0,0,1,32.5,11.036a11.028,11.028,0,0,1,7.877,3.554c3.93,4.326,3.681,10.873,3.208,16.642L43.244,35.4c-.249,3-.578,6.2-2.485,8.533-1.485,1.808-3.884,3.039-4.5,5.294-.532,1.94.468,4.046-.058,5.986-.786,2.9-4.4,3.949-6.317,6.3a6.387,6.387,0,0,0-.474,7.239c.728,1.145,1.89,2.289,1.734,3.634-.133,1.082-1.115,1.957-1.11,3.045a2.427,2.427,0,0,0,1.774,2.1,7.235,7.235,0,0,0,2.93.137L45.1,76.733a3.674,3.674,0,0,0,1.844-.5,3.2,3.2,0,0,0,1.058-2.341c.416-3.651-.578-7.64,1.266-10.833.578-1.024,1.427-1.877,2.069-2.861,3.537-5.494-.029-12.945,1.9-19.177.913-2.959,3.04-5.5,3.606-8.538.751-4.052-1.381-8.012-2.208-12.018-.85-4.138-.393-8.693-2.624-12.292A12.774,12.774,0,0,0,44.1,2.927c-2.89-.721-5.779-.464-8.669-.773C32.667,1.84,30.1.661,27.414.231Z" transform="translate(258.324 69)" opacity="0.1"/>
      <path id="Path-41" data-name="Path" d="M27.414.231a10.346,10.346,0,0,0-4.352,0c-4.543,1.242-5.97,6.913-9.478,10.026-1.26,1.145-2.815,1.911-3.959,3.153-2.034,2.209-2.445,5.482-2.011,8.441S9.2,27.615,9.926,30.516a29.7,29.7,0,0,1,.8,8.882,5.186,5.186,0,0,1-.774,2.81c-.838,1.145-2.381,1.505-3.468,2.421-3.317,2.827-.578,8.693-3.011,12.3C2.43,58.495.471,59.525.072,61.356A6.007,6.007,0,0,0,.98,65.162c1.549,3.148,3.155,6.381,5.779,8.727s5.866,3.525,9.091,4.721c.977.361,2.2.675,2.947-.04.919-.893.225-2.4-.41-3.508-1.006-1.717-1.792-3.788-1.2-5.723s2.479-3.216,3.751-4.83c3.277-4.178,2.2-10.175.578-15.211-.688-2.123-1.462-4.384-.878-6.541.249-.927.74-1.768,1.052-2.678,1.387-4.052-.942-8.5-.26-12.722a18.158,18.158,0,0,1,1.734-4.733l3.67-7.812a7.711,7.711,0,0,1,1.624-2.529A5.818,5.818,0,0,1,32.5,11.036a11.028,11.028,0,0,1,7.877,3.554c3.93,4.326,3.681,10.873,3.208,16.642L43.244,35.4c-.249,3-.578,6.2-2.485,8.533-1.485,1.808-3.884,3.039-4.5,5.294-.532,1.94.468,4.046-.058,5.986-.786,2.9-4.4,3.949-6.317,6.3a6.387,6.387,0,0,0-.474,7.239c.728,1.145,1.89,2.289,1.734,3.634-.133,1.082-1.115,1.957-1.11,3.045a2.427,2.427,0,0,0,1.774,2.1,7.235,7.235,0,0,0,2.93.137L45.1,76.733a3.674,3.674,0,0,0,1.844-.5,3.2,3.2,0,0,0,1.058-2.341c.416-3.651-.578-7.64,1.266-10.833.578-1.024,1.427-1.877,2.069-2.861,3.537-5.494-.029-12.945,1.9-19.177.913-2.959,3.04-5.5,3.606-8.538.751-4.052-1.381-8.012-2.208-12.018-.85-4.138-.393-8.693-2.624-12.292A12.774,12.774,0,0,0,44.1,2.927c-2.89-.721-5.779-.464-8.669-.773C32.667,1.845,30.1.666,27.414.231Z" transform="translate(258.324 68)" fill="#774e55"/>
      <path id="Path-42" data-name="Path" d="M0,2.95S8.08,5.48,19.793,0h6.052S26.247,5.9,42,3.369" transform="translate(264.324 160)" opacity="0.1"/>
      <ellipse id="Oval-4" data-name="Oval" cx="303.5" cy="28" rx="303.5" ry="28" transform="translate(0.324 362)" fill="#3756df" opacity="0.1"/>
      <rect id="Rectangle-8" data-name="Rectangle" width="46" height="17" rx="5.17" transform="translate(141.324 146)" fill="#3756df" opacity="0.1"/>
      <rect id="Rectangle-9" data-name="Rectangle" width="46" height="17" rx="5.17" transform="translate(162.324 165)" fill="#3756df" opacity="0.1"/>
      <rect id="Rectangle-10" data-name="Rectangle" width="46" height="17" rx="5.17" transform="translate(381.324 147)" fill="#3756df" opacity="0.1"/>
      <rect id="Rectangle-11" data-name="Rectangle" width="46" height="17" rx="5.17" transform="translate(401.324 167)" fill="#3756df" opacity="0.1"/>
      <rect id="Rectangle-12" data-name="Rectangle" width="46" height="17" rx="5.17" transform="translate(128.324 184)" fill="#3756df" opacity="0.1"/>
      <rect id="Rectangle-13" data-name="Rectangle" width="46" height="17" rx="5.17" transform="translate(173.324 249)" fill="#3756df" opacity="0.1"/>
      <rect id="Rectangle-14" data-name="Rectangle" width="46" height="17" rx="5.17" transform="translate(194.324 268)" fill="#3756df" opacity="0.1"/>
      <rect id="Rectangle-15" data-name="Rectangle" width="46" height="17" rx="5.17" transform="translate(158.324 288)" fill="#3756df" opacity="0.1"/>
      <rect id="Rectangle-16" data-name="Rectangle" width="46" height="17" rx="5.17" transform="translate(354.324 297)" fill="#3756df" opacity="0.1"/>
      <rect id="Rectangle-17" data-name="Rectangle" width="46" height="17" rx="5.17" transform="translate(320.324 316)" fill="#3756df" opacity="0.1"/>
      <g id="Group-2" data-name="Group" transform="translate(508.324 219)" opacity="0.1">
        <path id="Path-43" data-name="Path" d="M1.994,127.874s-8.216-41.194,8.7-69.429a63.091,63.091,0,0,0,8.868-39.274A106.037,106.037,0,0,0,15.595,0" transform="translate(23.686 27.892)" fill="none" stroke="#535461" stroke-miterlimit="10" stroke-width="2"/>
        <path id="Path-44" data-name="Path" d="M18.012,9.58c-.454,4.913-10.78,18.351-10.78,18.351S-.44,12.859.02,7.94a9.01,9.01,0,0,1,9.8-7.9,8.968,8.968,0,0,1,8.184,9.536Z" transform="translate(31.833 0.455)" fill="#3756df"/>
        <path id="Path-45" data-name="Path" d="M19.121,14.765C16.04,18.645,0,24.378,0,24.378S1.838,7.6,4.919,3.719A9.075,9.075,0,0,1,20.686,5.739,8.868,8.868,0,0,1,19.1,14.765Z" transform="translate(43.065 23.852)" fill="#3756df"/>
        <path id="Path-46" data-name="Path" d="M21.408,17.207C16.766,19.015,0,15.949,0,15.949S10.145,2.382,14.786.574A9.063,9.063,0,0,1,26.368,5.665a8.909,8.909,0,0,1-4.961,11.542Z" transform="translate(35.808 67.866)" fill="#3756df"/>
        <path id="Path-47" data-name="Path" d="M21.317,16.659C17.05,19.22,0,19,0,19S7.682,3.934,11.949,1.374a9.114,9.114,0,0,1,9.114-.294,8.895,8.895,0,0,1,.254,15.58Z" transform="translate(24.137 102.752)" fill="#3756df"/>
        <path id="Path-48" data-name="Path" d="M2.258,14.852c3.245,3.751,19.512,8.8,19.512,8.8S19.217,6.968,15.977,3.223A9.073,9.073,0,0,0,.5,6.008a8.87,8.87,0,0,0,1.758,8.844Z" transform="translate(21.834 32.598)" fill="#3756df"/>
        <path id="Path-49" data-name="Path" d="M4.351,16.585c4.227,2.617,21.283,2.622,21.283,2.622S18.156,4.046,13.923,1.424a9.114,9.114,0,0,0-9.1-.4,8.895,8.895,0,0,0-.477,15.558Z" transform="translate(6.497 71.195)" fill="#3756df"/>
        <path id="Path-50" data-name="Path" d="M3.25,15.807c3.722,3.285,20.528,6.149,20.528,6.149S18.995,5.755,15.267,2.47A9.1,9.1,0,0,0,6.3.42,8.9,8.9,0,0,0,3.25,15.807Z" transform="translate(0.155 112.903)" fill="#3756df"/>
      </g>
      <g id="Group-3" data-name="Group" transform="translate(448.324 283)" opacity="0.1">
        <path id="Path-51" data-name="Path" d="M1.08,68.149s-4.447-21.953,4.71-37a33.189,33.189,0,0,0,4.8-20.933A55.717,55.717,0,0,0,8.451,0" transform="translate(13.017 14.496)" fill="none" stroke="#535461" stroke-miterlimit="10" stroke-width="2"/>
        <path id="Path-52" data-name="Path" d="M9.757,4.926c-.246,2.619-5.838,9.781-5.838,9.781S-.236,6.676.011,4.056A4.868,4.868,0,0,1,5.3.02,4.811,4.811,0,0,1,9.74,4.926Z" transform="translate(17.428 0.051)" fill="#3756df"/>
        <path id="Path-53" data-name="Path" d="M10.359,7.6C8.688,9.663,0,12.717,0,12.717S1,3.8,2.667,1.71a4.985,4.985,0,0,1,6.779-.692A4.681,4.681,0,0,1,10.359,7.6Z" transform="translate(23.505 12.613)" fill="#3756df"/>
        <path id="Path-54" data-name="Path" d="M11.6,9.142C9.083,10.106,0,8.473,0,8.473S5.494,1.228,8.012.281a4.934,4.934,0,0,1,6.2,2.737A4.721,4.721,0,0,1,11.6,9.142Z" transform="translate(19.579 35.833)" fill="#3756df"/>
        <path id="Path-55" data-name="Path" d="M11.544,8.9C9.254,10.263,0,10.146,0,10.146S4.161,2.115,6.473.75A5.007,5.007,0,0,1,11.43.571,4.75,4.75,0,0,1,14,4.7a4.742,4.742,0,0,1-2.457,4.2Z" transform="translate(13.261 54.358)" fill="#3756df"/>
        <path id="Path-56" data-name="Path" d="M1.181,7.866c1.757,2,10.571,4.693,10.571,4.693S10.373,3.641,8.616,1.668a4.987,4.987,0,0,0-6.9-.524,4.681,4.681,0,0,0-.538,6.721Z" transform="translate(12.051 17.057)" fill="#3756df"/>
        <path id="Path-57" data-name="Path" d="M2.234,8.76c2.289,1.393,11.526,1.4,11.526,1.4S9.709,2.078,7.419.684A4.97,4.97,0,0,0,.744,2.241a4.691,4.691,0,0,0,1.49,6.525Z" transform="translate(3.827 37.648)" fill="#3756df"/>
        <path id="Path-58" data-name="Path" d="M1.545,8.26c2.015,1.75,11.12,3.277,11.12,3.277S10.078,2.9,8.086,1.154a4.986,4.986,0,0,0-6.845.439,4.677,4.677,0,0,0,.332,6.672Z" transform="translate(0.493 59.961)" fill="#3756df"/>
      </g>
      <g id="Group-4" data-name="Group" transform="translate(91.324 287)" opacity="0.1">
        <path id="Path-59" data-name="Path" d="M1.08,68.149s-4.447-21.953,4.71-37a33.189,33.189,0,0,0,4.8-20.933A55.717,55.717,0,0,0,8.451,0" transform="translate(13.017 14.496)" fill="none" stroke="#535461" stroke-miterlimit="10" stroke-width="2"/>
        <path id="Path-60" data-name="Path" d="M9.757,4.926c-.246,2.619-5.838,9.781-5.838,9.781S-.236,6.676.011,4.056A4.868,4.868,0,0,1,5.3.02,4.811,4.811,0,0,1,9.74,4.926Z" transform="translate(17.428 0.051)" fill="#3756df"/>
        <path id="Path-61" data-name="Path" d="M10.359,7.6C8.688,9.663,0,12.717,0,12.717S1,3.8,2.667,1.71a4.985,4.985,0,0,1,6.779-.692A4.681,4.681,0,0,1,10.359,7.6Z" transform="translate(23.505 12.613)" fill="#3756df"/>
        <path id="Path-62" data-name="Path" d="M11.6,9.142C9.083,10.106,0,8.473,0,8.473S5.494,1.228,8.012.281a4.934,4.934,0,0,1,6.2,2.737A4.721,4.721,0,0,1,11.6,9.142Z" transform="translate(19.579 35.833)" fill="#3756df"/>
        <path id="Path-63" data-name="Path" d="M11.544,8.9C9.254,10.263,0,10.146,0,10.146S4.161,2.115,6.473.75A5.007,5.007,0,0,1,11.43.571,4.75,4.75,0,0,1,14,4.7a4.742,4.742,0,0,1-2.457,4.2Z" transform="translate(13.261 54.358)" fill="#3756df"/>
        <path id="Path-64" data-name="Path" d="M1.181,7.866c1.757,2,10.571,4.693,10.571,4.693S10.373,3.641,8.616,1.668a4.987,4.987,0,0,0-6.9-.524,4.681,4.681,0,0,0-.538,6.721Z" transform="translate(12.051 17.057)" fill="#3756df"/>
        <path id="Path-65" data-name="Path" d="M2.234,8.76c2.289,1.393,11.526,1.4,11.526,1.4S9.709,2.078,7.419.684A4.97,4.97,0,0,0,.744,2.241a4.691,4.691,0,0,0,1.49,6.525Z" transform="translate(3.827 37.648)" fill="#3756df"/>
        <path id="Path-66" data-name="Path" d="M1.545,8.26c2.015,1.75,11.12,3.277,11.12,3.277S10.078,2.9,8.086,1.154a4.986,4.986,0,0,0-6.845.439,4.677,4.677,0,0,0,.332,6.672Z" transform="translate(0.493 59.961)" fill="#3756df"/>
      </g>
    </g>
  </g>
</svg>
